<?xml version="1.0"?>
<svg xmlns="http://www.w3.org/2000/svg" viewBox="0 0 24 24">
    <path style="line-height:normal;text-indent:0;text-align:start;text-decoration-line:none;text-decoration-style:solid;text-decoration-color:#000;text-transform:none;block-progression:tb;isolation:auto;mix-blend-mode:normal" d="M 7 2 L 2 6.0019531 L 7 10 L 7 7 L 11 7 L 11 5 L 7 5 L 7 2 z M 18 2 C 16.354545 2 15 3.3545455 15 5 L 15 8 C 15 9.6454545 16.354545 11 18 11 L 19 11 C 20.645455 11 22 9.6454545 22 8 L 22 5 C 22 3.3545455 20.645455 2 19 2 L 18 2 z M 18 4 L 19 4 C 19.554545 4 20 4.4454545 20 5 L 20 8 C 20 8.5545455 19.554545 9 19 9 L 18 9 C 17.445455 9 17 8.5545455 17 8 L 17 5 C 17 4.4454545 17.445455 4 18 4 z M 12 9 C 11.45 9 11 9.45 11 10 C 11 10.55 11.45 11 12 11 C 12.55 11 13 10.55 13 10 C 13 9.45 12.55 9 12 9 z M 9 13 C 7.3545455 13 6 14.354545 6 16 L 6 19 C 6 20.645455 7.3545455 22 9 22 L 10 22 C 11.645455 22 13 20.645455 13 19 L 13 16 C 13 14.354545 11.645455 13 10 13 L 9 13 z M 18 13 C 16.354545 13 15 14.354545 15 16 L 15 19 C 15 20.645455 16.354545 22 18 22 L 19 22 C 20.645455 22 22 20.645455 22 19 L 22 16 C 22 14.354545 20.645455 13 19 13 L 18 13 z M 9 15 L 10 15 C 10.554545 15 11 15.445455 11 16 L 11 19 C 11 19.554545 10.554545 20 10 20 L 9 20 C 8.4454545 20 8 19.554545 8 19 L 8 16 C 8 15.445455 8.4454545 15 9 15 z M 18 15 L 19 15 C 19.554545 15 20 15.445455 20 16 L 20 19 C 20 19.554545 19.554545 20 19 20 L 18 20 C 17.445455 20 17 19.554545 17 19 L 17 16 C 17 15.445455 17.445455 15 18 15 z M 3 20 C 2.45 20 2 20.45 2 21 C 2 21.55 2.45 22 3 22 C 3.55 22 4 21.55 4 21 C 4 20.45 3.55 20 3 20 z" font-weight="400" font-family="sans-serif" white-space="normal" overflow="visible"/>
</svg>
